<svg width="64" height="42" viewBox="0 0 64 42" fill="none" xmlns="http://www.w3.org/2000/svg">
<path d="M31.2028 11.284C45.7135 11.284 58.1828 15.5121 61.5084 16.745L55.8244 38.8378C51.8842 37.529 38.5613 33.2762 31.7846 33.2762C25.071 33.2762 11.5405 37.5283 7.53669 38.8372L2.33391 16.7728C5.80655 15.5597 18.9231 11.284 31.2028 11.284ZM50.8527 5.60872L49.4338 11.1203C44.2323 10.0301 37.9337 9.14065 31.2028 9.14065C25.231 9.14065 19.1616 10.09 14.0224 11.2303L12.703 5.63465C15.364 4.72357 23.5855 2.14348 31.3059 2.14348C40.4137 2.14348 48.2973 4.68713 50.8527 5.60872V5.60872ZM5.72007 40.4679C5.78925 40.7619 5.9795 41.0127 6.24387 41.1585C6.50763 41.3055 6.82079 41.3339 7.10678 41.2363C7.2785 41.1789 24.3705 35.4183 31.7846 35.4183C39.2655 35.4183 56.0567 41.177 56.2259 41.2345C56.3396 41.274 56.4576 41.2932 56.5749 41.2932C56.7503 41.2932 56.9252 41.2511 57.0827 41.1659C57.3458 41.0238 57.5379 40.7786 57.6126 40.4883L63.821 16.354C63.9544 15.8364 63.6857 15.3009 63.1916 15.097C63.1119 15.0637 58.5534 13.2118 51.5284 11.5818L53.1665 5.21278C53.2999 4.69454 53.0312 4.159 52.5377 3.95517C52.1461 3.79333 42.8128 0.000110626 31.3059 0.000110626C21.5897 0.000110626 11.4862 3.78284 11.0606 3.94344C10.5572 4.1343 10.2737 4.66736 10.3972 5.19116L11.9359 11.7152C5.56071 13.2619 1.03553 14.9556 0.692714 15.0853C0.189916 15.2761 -0.0948376 15.8098 0.0287 16.3336L5.72007 40.4679" fill="#11935B"/>
<path d="M33.752 15.3964V19.7708C33.752 20.2149 34.1115 20.5744 34.5556 20.5744H38.93V24.2231H34.5556C34.1115 24.2231 33.752 24.5832 33.752 25.0267V29.4018H30.1033V25.0267C30.1033 24.5832 29.7438 24.2231 29.2997 24.2231H24.9252V20.5744H29.2997C29.7438 20.5744 30.1033 20.2149 30.1033 19.7708V15.3964H33.752ZM28.4961 18.9678H24.1216C23.6775 18.9678 23.3186 19.3279 23.3186 19.7708V25.0267C23.3186 25.4708 23.6775 25.8303 24.1216 25.8303H28.4961V30.2054C28.4961 30.6489 28.8562 31.009 29.2997 31.009H34.5556C34.9997 31.009 35.3592 30.6489 35.3592 30.2054V25.8303H39.7337C40.1778 25.8303 40.5373 25.4708 40.5373 25.0267V19.7708C40.5373 19.3279 40.1778 18.9678 39.7337 18.9678H35.3592V14.5927C35.3592 14.1492 34.9997 13.7898 34.5556 13.7898H29.2997C28.8562 13.7898 28.4961 14.1492 28.4961 14.5927V18.9678Z" fill="#11935B"/>
</svg>
