<svg width="0" height="0" class="hidden">
  <symbol fill="none" xmlns="http://www.w3.org/2000/svg" viewBox="0 0 49 49" id="icon-baby">
    <path d="M40.711 19.144a17.639 17.639 0 00-12.88-10.407l2.561-4.097-2.597-1.623-3.379 5.406A17.614 17.614 0 008.29 19.144a6.888 6.888 0 000 13.775 17.616 17.616 0 0032.422 0 6.888 6.888 0 000-13.775zm2.599 9.568a3.807 3.807 0 01-2.657 1.145l-1.983.038-.777 1.825a14.553 14.553 0 01-26.786 0l-.776-1.825-1.984-.038a3.826 3.826 0 010-7.65l1.984-.038.776-1.826a14.554 14.554 0 0126.786 0l.776 1.826 1.984.037a3.825 3.825 0 012.657 6.506z" fill="#11935B"></path>
    <path d="M16.078 22.203h3.828v3.828h-3.828v-3.828zm13.016 0h3.828v3.828h-3.828v-3.828zM24.5 36.75a7.656 7.656 0 007.656-7.656H16.844A7.657 7.657 0 0024.5 36.75z" fill="#11935B"></path>
  </symbol>
  <symbol fill="none" xmlns="http://www.w3.org/2000/svg" viewBox="0 0 41 46" id="icon-dentist">
    <path d="M34.964 25.51c-.208 1.02-.407 2.15-.618 3.345-.824 4.672-1.85 10.49-4.333 14.958a.21.21 0 00-.018.034c-.148-.044-.401-.147-.787-.386-.313-.45-.523-2.496-.677-3.993-.547-5.315-1.372-13.34-8.207-13.8a1.12 1.12 0 00-.142 0c-6.834.46-7.66 8.486-8.206 13.8-.154 1.497-.364 3.542-.678 3.992-.385.24-.639.343-.786.387a.208.208 0 00-.018-.034C7.866 39.08 6.98 32.504 6.393 28.155c-.17-1.255-.316-2.34-.474-3.137a1.153 1.153 0 00-.02-.087c-.115-.398-.48-1.358-1.115-3.02-.848-2.222-2.614-6.845-2.662-7.631 0-6.704 5.454-12.158 12.159-12.158 1.923 0 3.81.836 5.56 1.74.305.157.669.157.973 0 1.752-.904 3.638-1.74 5.562-1.74 6.704 0 12.158 5.454 12.158 12.158 0 1.27-2.498 8.417-3.52 11.06a1.159 1.159 0 00-.05.17zM26.376 0c-2.184 0-4.192.802-6.048 1.728C18.473.802 16.464 0 14.281 0 6.407 0 0 6.406 0 14.28c0 .896.904 3.418 2.802 8.388.477 1.248.929 2.43 1.046 2.81.141.73.28 1.766.442 2.96.603 4.473 1.512 11.216 4.282 16.28.123.401.423.861.958 1.106.253.117.525.176.817.176.615 0 1.323-.26 2.139-.778 1.104-.705 1.29-2.525 1.601-5.54.623-6.057 1.565-11.528 6.167-11.89 4.6.362 5.542 5.833 6.166 11.89.31 3.015.497 4.835 1.601 5.54 1.204.763 2.172.964 2.955.602.536-.245.836-.705.96-1.106 2.605-4.756 3.655-10.706 4.5-15.495.203-1.148.394-2.235.59-3.206.368-.973 3.63-9.709 3.63-11.737C40.656 6.406 34.25 0 26.376 0z" fill="#11935B"></path>
    <path d="M26.99 13.466a2.633 2.633 0 01-.24-2.016 2.63 2.63 0 011.255-1.594 2.629 2.629 0 012.015-.242 2.634 2.634 0 011.595 1.255 2.656 2.656 0 01-1.013 3.61 2.657 2.657 0 01-3.611-1.013zm3.488-5.486a4.314 4.314 0 00-3.305.395 4.322 4.322 0 00-2.057 2.617 4.32 4.32 0 00.395 3.305 4.353 4.353 0 005.922 1.662 4.324 4.324 0 002.058-2.616 4.32 4.32 0 00-.397-3.306 4.315 4.315 0 00-2.616-2.057z" fill="#11935B"></path>
  </symbol>
  <symbol fill="none" xmlns="http://www.w3.org/2000/svg" viewBox="0 0 64 65" id="icon-emergency">
    <path d="M18.151 33.62a1.333 1.333 0 000-2.24L3.176 21.703l6.972-10.79 13.093 8.459a1.332 1.332 0 002.056-1.12V2.666h12.848v15.588a1.332 1.332 0 002.056 1.119l13.09-8.46 6.978 10.791-14.98 9.677a1.344 1.344 0 00-.61 1.12c0 .452.234.874.61 1.12l14.98 9.675-6.977 10.792-13.091-8.46a1.335 1.335 0 00-2.056 1.12v15.587H25.297V46.748a1.333 1.333 0 00-2.056-1.12l-13.093 8.46-6.972-10.792L18.15 33.62zm-18.122 9c-.073.345-.007.706.185 1.002l8.419 13.031c.4.62 1.225.796 1.843.396l12.155-7.854v14.472c0 .737.597 1.333 1.332 1.333h15.515c.736 0 1.333-.596 1.333-1.333V49.195l12.155 7.854c.621.4 1.445.223 1.844-.396l8.416-13.03a1.336 1.336 0 00-.393-1.842L48.465 32.5l14.366-9.282a1.336 1.336 0 00.394-1.843L54.81 8.346a1.335 1.335 0 00-1.844-.396l-12.155 7.855V1.333A1.333 1.333 0 0039.478 0H23.963c-.735 0-1.332.596-1.332 1.333v14.472L10.476 7.95a1.334 1.334 0 00-1.843.397l-8.42 13.03A1.333 1.333 0 00.61 23.22l14.364 9.28L.61 41.78a1.333 1.333 0 00-.58.84z" fill="#11935B"></path>
  </symbol>
  <symbol fill="none" xmlns="http://www.w3.org/2000/svg" viewBox="0 0 32 32" id="icon-fb">
    <circle cx="17" cy="17" r="13" fill="#fff"></circle>
    <path d="M17.164 23.497v-6.83h2.304l.343-2.674h-2.647V12.29c0-.772.215-1.3 1.323-1.3h1.403V8.606a18.612 18.612 0 00-2.056-.106c-2.037 0-3.435 1.243-3.435 3.526v1.962H12.11v2.674h2.294v6.835h2.76z" fill="#11935B"></path>
  </symbol>
  <symbol fill="none" xmlns="http://www.w3.org/2000/svg" viewBox="0 0 32 32" id="icon-in">
    <circle cx="16" cy="16" r="13" fill="#fff"></circle>
    <path d="M16 12.148a3.853 3.853 0 10-.001 7.705 3.853 3.853 0 000-7.706zm0 6.355a2.503 2.503 0 11-.001-5.006 2.503 2.503 0 010 5.006zm4.005-5.599a.898.898 0 100-1.797.898.898 0 000 1.797z" fill="#11935B"></path>
    <path d="M23.11 11.092A3.838 3.838 0 0020.918 8.9a5.505 5.505 0 00-1.822-.35c-.802-.035-1.057-.045-3.092-.045s-2.296 0-3.091.045a5.462 5.462 0 00-1.82.35 3.833 3.833 0 00-2.194 2.194 5.487 5.487 0 00-.35 1.821c-.035.802-.046 1.056-.046 3.092 0 2.035 0 2.294.046 3.091.013.624.13 1.239.35 1.823a3.841 3.841 0 002.194 2.193 5.485 5.485 0 001.821.375c.803.035 1.057.046 3.092.046s2.296 0 3.092-.046a5.511 5.511 0 001.821-.349 3.844 3.844 0 002.195-2.194 5.501 5.501 0 00.349-1.822c.035-.801.046-1.056.046-3.091 0-2.036 0-2.294-.046-3.092a5.482 5.482 0 00-.351-1.848zm-1.014 7.944c-.006.48-.093.956-.26 1.406a2.491 2.491 0 01-1.426 1.426 4.153 4.153 0 01-1.392.26c-.791.036-1.015.045-3.045.045-2.031 0-2.239 0-3.046-.045a4.132 4.132 0 01-1.39-.26 2.487 2.487 0 01-1.433-1.425 4.233 4.233 0 01-.259-1.391c-.036-.792-.044-1.015-.044-3.045 0-2.031 0-2.239.044-3.046.005-.48.093-.956.26-1.406a2.488 2.488 0 011.432-1.427 4.175 4.175 0 011.39-.259c.793-.036 1.016-.046 3.046-.046 2.031 0 2.24 0 3.045.046.476.006.947.094 1.392.26a2.494 2.494 0 011.427 1.426c.163.446.251.916.259 1.39.036.793.045 1.016.045 3.047 0 2.03 0 2.248-.036 3.045h-.01v-.001z" fill="#11935B"></path>
  </symbol>
  <symbol fill="none" xmlns="http://www.w3.org/2000/svg" viewBox="0 0 64 56" id="icon-intensive">
    <path d="M8.426 33.446h46.45v8.115H8.426v-8.115zm-6.352 20.48V19.704h4.278v34.222H2.074zm54.877 0V28.449h4.277v25.477H56.95zm5.314-27.55h-6.352c-.573 0-1.036.464-1.036 1.036v3.96H8.425V18.667c0-.573-.465-1.037-1.037-1.037H1.037C.465 17.63 0 18.094 0 18.667v36.296C0 55.535.465 56 1.037 56H7.39c.572 0 1.037-.465 1.037-1.037V43.635h46.45v11.328c0 .572.464 1.037 1.037 1.037h6.352c.572 0 1.037-.465 1.037-1.037V27.412c0-.572-.465-1.037-1.037-1.037z" fill="#11935B"></path>
    <path d="M21.26 27.223c0 .571-.466 1.036-1.038 1.036h-7.648a1.038 1.038 0 01-1.037-1.037v-1.409c0-.57.465-1.036 1.037-1.036h7.649c.571 0 1.036.465 1.036 1.036v1.41zm-8.686-4.52a3.115 3.115 0 00-3.11 3.11v1.41a3.115 3.115 0 003.11 3.11h7.649a3.114 3.114 0 003.11-3.11v-1.41a3.114 3.114 0 00-3.11-3.11h-7.65zM33.358 7.55h5.217c.43 0 .777-.348.777-.777V1.556h4.53v5.217c0 .429.348.778.777.778h5.217v4.528h-5.217a.777.777 0 00-.777.778v5.217h-4.53v-5.217a.777.777 0 00-.777-.778h-5.217V7.55zm5.217 12.08h6.084c.43 0 .778-.35.778-.778v-5.218h5.217a.777.777 0 00.777-.777V6.773a.778.778 0 00-.777-.778h-5.217V.778A.778.778 0 0044.659 0h-6.084a.778.778 0 00-.778.778v5.217h-5.216a.778.778 0 00-.779.778v6.084c0 .429.349.777.779.777h5.216v5.218c0 .429.348.777.778.777z" fill="#11935B"></path>
  </symbol>
  <symbol fill="none" xmlns="http://www.w3.org/2000/svg" viewBox="0 0 52 55" id="icon-lab">
    <path d="M19.755 48.32v-4.543h11.684v4.542H19.755zm20.725 4.25H10.713v-1.822H40.48v1.823zM2.43 8.619A6.195 6.195 0 018.618 2.43h33.957a6.195 6.195 0 016.189 6.188v26.54a6.195 6.195 0 01-6.19 6.189H8.619a6.195 6.195 0 01-6.188-6.189V8.618zm6.188 35.159h8.707v4.542H9.499c-.672 0-1.215.544-1.215 1.214v4.252c0 .672.543 1.215 1.215 1.215h32.196c.67 0 1.214-.543 1.214-1.215v-4.252c0-.67-.543-1.214-1.214-1.214h-7.827v-4.542h8.707c4.752 0 8.619-3.866 8.619-8.619V8.618c0-4.752-3.867-8.618-8.62-8.618H8.619C3.866 0 0 3.866 0 8.618v26.54c0 4.753 3.866 8.619 8.618 8.619" fill="#11935B"></path>
    <path d="M42.424 23.28h-7.29a.488.488 0 01-.465-.35l-1.423-4.834-3.52 10.268a.485.485 0 01-.46.328v.243l-.017-.243a.482.482 0 01-.452-.359l-3.648-13.475-4.905 8.184a.488.488 0 01-.416.237H8.893a.486.486 0 010-.972h10.659l5.35-8.93a.487.487 0 01.886.123l3.533 13.049 3.5-10.212a.5.5 0 01.471-.328.483.483 0 01.456.35l1.75 5.948h6.926a.486.486 0 010 .972zm-8.132 11.043h-17.39a6.195 6.195 0 01-6.189-6.188v-4.37h9.115c.34 0 .659-.181.833-.473l4.317-7.205 3.35 12.373a.966.966 0 00.906.717h.032a.971.971 0 00.92-.655l3.025-8.825.991 3.37c.121.41.504.698.932.698h5.346v4.37a6.195 6.195 0 01-6.188 6.188zm-17.39-24.87h17.39a6.195 6.195 0 016.188 6.189v6.179h-4.62l-1.647-5.6a.968.968 0 00-.909-.698c-.415-.023-.805.256-.943.657l-2.987 8.711-3.118-11.517a.97.97 0 00-.803-.709.962.962 0 00-.969.463l-5.208 8.693h-8.564v-6.179a6.195 6.195 0 016.189-6.188zm-8.618 14.09v4.592c0 4.752 3.865 8.618 8.618 8.618h17.39c4.752 0 8.617-3.866 8.617-8.618v-4.506a.967.967 0 00.487-.837.968.968 0 00-.486-.836v-6.314c0-4.752-3.866-8.618-8.618-8.618h-17.39c-4.753 0-8.618 3.866-8.618 8.618v6.4a.968.968 0 00-.363.75c0 .304.144.573.363.751z" fill="#11935B"></path>
  </symbol>
  <symbol fill="none" xmlns="http://www.w3.org/2000/svg" viewBox="0 0 60 60" id="icon-pharmacy">
    <path d="M12.908 50.523l-2.585-2.495a6.98 6.98 0 01-.173-9.86l12.808-13.266 12.617 12.182-12.808 13.265a6.98 6.98 0 01-9.86.174zM47.75 9.263l2.584 2.496a6.976 6.976 0 01.173 9.858L37.702 34.88 25.085 22.699 37.891 9.435a6.977 6.977 0 019.86-.171zM24.97 52.478l27.741-28.732c3.846-3.984 3.733-10.348-.248-14.191L49.88 7.058c-3.982-3.844-10.346-3.734-14.192.25L22.239 21.235a1.539 1.539 0 00-.843.874L7.946 36.04c-3.844 3.98-3.731 10.347.25 14.19l2.585 2.496c3.98 3.843 10.346 3.732 14.19-.249z" fill="#11935B"></path>
  </symbol>
  <symbol fill="none" xmlns="http://www.w3.org/2000/svg" viewBox="0 0 64 42" id="icon-primary">
    <path d="M31.203 11.284c14.51 0 26.98 4.228 30.305 5.461l-5.684 22.093c-3.94-1.309-17.263-5.562-24.04-5.562-6.713 0-20.244 4.252-24.247 5.561L2.334 16.773c3.473-1.213 16.59-5.489 28.869-5.489zm19.65-5.675l-1.42 5.511c-5.2-1.09-11.5-1.98-18.23-1.98-5.972 0-12.041.95-17.18 2.09l-1.32-5.595c2.661-.911 10.883-3.492 18.603-3.492 9.108 0 16.991 2.544 19.547 3.466zM5.72 40.468c.07.294.26.545.524.69.264.148.577.176.863.078.171-.057 17.264-5.818 24.678-5.818 7.48 0 24.272 5.759 24.44 5.816a1.063 1.063 0 00.858-.068c.263-.142.455-.387.53-.678l6.208-24.134a1.07 1.07 0 00-.63-1.257c-.08-.033-4.638-1.885-11.663-3.515l1.639-6.37a1.071 1.071 0 00-.63-1.257C52.148 3.793 42.814 0 31.307 0 21.59 0 11.486 3.783 11.06 3.943a1.07 1.07 0 00-.664 1.248l1.539 6.524c-6.375 1.547-10.9 3.24-11.243 3.37a1.073 1.073 0 00-.664 1.249L5.72 40.468" fill="#11935B"></path>
    <path d="M33.752 15.396v4.375c0 .444.36.803.804.803h4.374v3.65h-4.374a.804.804 0 00-.804.803v4.375h-3.649v-4.375a.804.804 0 00-.803-.804h-4.375v-3.649H29.3c.444 0 .803-.36.803-.803v-4.375h3.649zm-5.256 3.572h-4.374a.803.803 0 00-.803.803v5.256c0 .444.358.803.803.803h4.374v4.375c0 .444.36.804.804.804h5.256c.444 0 .803-.36.803-.804V25.83h4.375c.444 0 .803-.36.803-.803V19.77a.803.803 0 00-.803-.803h-4.375v-4.375a.803.803 0 00-.803-.803H29.3a.803.803 0 00-.804.803v4.375z" fill="#11935B"></path>
  </symbol>
  <symbol fill="none" xmlns="http://www.w3.org/2000/svg" viewBox="0 0 32 32" id="icon-tw">
    <circle cx="16" cy="16" r="13" fill="#fff"></circle>
    <path d="M22.36 12.664c.012.146.012.291.012.436 0 4.438-3.378 9.55-9.55 9.55a9.484 9.484 0 01-5.155-1.507c.27.031.53.042.81.042a6.725 6.725 0 004.168-1.434 3.363 3.363 0 01-3.14-2.328 3.6 3.6 0 001.519-.062 3.356 3.356 0 01-2.692-3.294v-.042c.448.25.967.405 1.517.426a3.352 3.352 0 01-1.497-2.795c0-.623.166-1.195.457-1.694a9.546 9.546 0 006.922 3.513 3.82 3.82 0 01-.083-.77 3.353 3.353 0 013.356-3.356c.967 0 1.84.405 2.453 1.06a6.631 6.631 0 002.13-.81 3.35 3.35 0 01-1.476 1.85 6.727 6.727 0 001.932-.52 7.204 7.204 0 01-1.682 1.735z" fill="#11935B"></path>
  </symbol>
  <symbol fill="none" xmlns="http://www.w3.org/2000/svg" viewBox="0 0 49 49" id="icon-wealth">
    <g clip-path="url(#clip0)" fill="#11935B">
      <path d="M41.03 6.052A20.53 20.53 0 0026.418 0a20.53 20.53 0 00-14.612 6.052 20.525 20.525 0 00-6.052 14.441l-3.76 7.521a.719.719 0 00.273.938l3.487 2.092v11.1a.72.72 0 00.719.719h6.952v5.418a.72.72 0 101.438 0v-6.137a.72.72 0 00-.719-.72H7.192V30.638a.72.72 0 00-.35-.617l-3.264-1.959 3.538-7.075a.72.72 0 00.076-.322c0-10.6 8.625-19.226 19.226-19.226 10.601 0 19.226 8.625 19.226 19.226 0 5.957-2.696 11.481-7.395 15.155a.72.72 0 00-.277.567v11.895a.72.72 0 001.439 0V36.733a20.544 20.544 0 007.671-16.069c0-5.52-2.15-10.709-6.052-14.612z"></path>
      <path d="M36.958 14.634l-2.072-2.072a.519.519 0 10-.734.734l1.704 1.705-.889.889a2.178 2.178 0 00-.359-.473 2.2 2.2 0 00-2.465-.434 2.191 2.191 0 00-.617.434 2.2 2.2 0 00-.435 2.466 2.19 2.19 0 00.907.976l-.889.89-1.498-1.499c-.311-.311-.86-.1-.885.338a1.152 1.152 0 01-1.14 1.079c-.305 0-.592-.119-.807-.335a1.153 1.153 0 010-1.615 1.14 1.14 0 01.744-.332c.438-.025.649-.574.338-.886l-1.498-1.498 4.747-4.748 1.202 1.203a.519.519 0 10.734-.734l-1.57-1.57a.519.519 0 00-.733 0l-5.481 5.482a.52.52 0 000 .734l1.256 1.256a2.175 2.175 0 00-.473.36 2.2 2.2 0 00-.435 2.465 2.19 2.19 0 001.976 1.256 2.165 2.165 0 001.9-1.111l1.256 1.256c.2.2.534.2.735 0l1.865-1.866c.311-.31.1-.86-.338-.885a1.14 1.14 0 01-.744-.332 1.153 1.153 0 010-1.616c.44-.44 1.174-.44 1.615 0 .199.2.316.463.332.744.024.439.574.65.885.339l1.866-1.866a.52.52 0 000-.734z"></path>
      <path d="M31.32 23.763h-1.7a2.087 2.087 0 00-2.007-2.647 2.087 2.087 0 00-2.007 2.647h-1.202v-2.026a.5.5 0 00-.827-.37 1.093 1.093 0 11-.728-1.905c.269 0 .527.099.728.278a.5.5 0 00.827-.37v-2.522a.496.496 0 00-.496-.496h-7.412a.496.496 0 00-.496.496V31.67c0 .274.222.496.496.496H31.32a.496.496 0 00.497-.496v-7.412a.496.496 0 00-.497-.496zm-14.327-6.419h6.419v1.202a2.086 2.086 0 00-2.647 2.008 2.087 2.087 0 002.646 2.007v1.202h-2.026c-.419 0-.65.514-.37.827a1.09 1.09 0 01-.813 1.82 1.093 1.093 0 01-.814-1.82c.281-.313.05-.827-.37-.827h-2.025v-6.419zm6.712 11.351a.496.496 0 00-.293.454v2.026h-6.42v-6.42h1.203a2.086 2.086 0 002.007 2.648 2.087 2.087 0 002.007-2.647h1.203v2.026a.5.5 0 00.827.37 1.09 1.09 0 011.82.813 1.093 1.093 0 01-1.82.814.497.497 0 00-.534-.084zm7.118 2.48h-6.419v-1.203a2.087 2.087 0 002.647-2.007 2.087 2.087 0 00-2.647-2.007v-1.202h2.026c.42 0 .65-.514.37-.828a1.093 1.093 0 01.814-1.82 1.093 1.093 0 01.813 1.82c-.28.314-.05.828.37.828h2.026v6.419z"></path>
    </g>
    <defs>
      <clipPath id="clip0">
        <path fill="#fff" d="M0 0h49v49H0z"></path>
      </clipPath>
    </defs>
  </symbol>
  <symbol  fill="none" xmlns="http://www.w3.org/2000/svg" id="icon-phone">
    <path d="M22.3029 17.821V20.821C22.304 21.0995 22.247 21.3751 22.1354 21.6303C22.0238 21.8855 21.8602 22.1146 21.655 22.3028C21.4498 22.4911 21.2075 22.6345 20.9437 22.7237C20.6798 22.8129 20.4003 22.846 20.1229 22.821C17.0457 22.4866 14.0899 21.4351 11.4929 19.751C9.07674 18.2156 7.02825 16.1671 5.49291 13.751C3.80289 11.1422 2.75115 8.17197 2.42291 5.08098C2.39792 4.80444 2.43079 4.52574 2.51941 4.2626C2.60804 3.99946 2.75048 3.75767 2.93768 3.5526C3.12487 3.34753 3.35272 3.18369 3.6067 3.0715C3.86069 2.95931 4.13525 2.90124 4.41291 2.90098H7.41291C7.89822 2.8962 8.3687 3.06805 8.73667 3.38451C9.10464 3.70096 9.34499 4.14042 9.41291 4.62098C9.53953 5.58104 9.77436 6.5237 10.1129 7.43098C10.2475 7.7889 10.2766 8.17789 10.1968 8.55186C10.1171 8.92582 9.93177 9.26909 9.66291 9.54098L8.39291 10.811C9.81647 13.3145 11.8894 15.3874 14.3929 16.811L15.6629 15.541C15.9348 15.2721 16.2781 15.0868 16.652 15.0071C17.026 14.9273 17.415 14.9564 17.7729 15.091C18.6802 15.4295 19.6228 15.6644 20.5829 15.791C21.0687 15.8595 21.5123 16.1042 21.8294 16.4785C22.1466 16.8528 22.3151 17.3306 22.3029 17.821Z" stroke="white" stroke-width="2" stroke-linecap="round" stroke-linejoin="round"/>
</symbol>
<symbol id="icon-mail"  fill="none" xmlns="http://www.w3.org/2000/svg">
  <path d="M4.30292 4.90098H20.3029C21.4029 4.90098 22.3029 5.80098 22.3029 6.90098V18.901C22.3029 20.001 21.4029 20.901 20.3029 20.901H4.30292C3.20292 20.901 2.30292 20.001 2.30292 18.901V6.90098C2.30292 5.80098 3.20292 4.90098 4.30292 4.90098Z" stroke="white" stroke-width="2" stroke-linecap="round" stroke-linejoin="round"/>
  <path d="M22.3029 6.90098L12.3029 13.901L2.30292 6.90098" stroke="white" stroke-width="2" stroke-linecap="round" stroke-linejoin="round"/>
</symbol>

</svg>