<svg width="49" height="49" viewBox="0 0 49 49" fill="none" xmlns="http://www.w3.org/2000/svg">
<g clip-path="url(#clip0)">
<path d="M41.0298 6.05246C37.1267 2.14949 31.9374 0 26.4179 0C20.8984 0 15.7089 2.14949 11.806 6.05246C7.94328 9.91523 5.79809 15.0374 5.75426 20.4933L1.99389 28.014C1.82584 28.3501 1.94479 28.759 2.26722 28.9523L5.75359 31.0442V42.1438C5.75359 42.541 6.07553 42.863 6.4728 42.863H13.4249V48.2809C13.4249 48.6781 13.7468 49.0001 14.1441 49.0001C14.5413 49.0001 14.8633 48.6781 14.8633 48.2809V42.1438C14.8633 41.7467 14.5413 41.4246 14.1441 41.4246H7.19182V30.637C7.19182 30.3844 7.05927 30.1502 6.84259 30.0203L3.57806 28.0615L7.11583 20.986C7.16578 20.8861 7.19182 20.7761 7.19182 20.6643C7.19182 10.0631 15.8166 1.43832 26.4178 1.43832C37.019 1.43832 45.6438 10.0631 45.6438 20.6643C45.6438 26.6215 42.9484 32.1452 38.2488 35.8195C38.0745 35.9558 37.9725 36.1648 37.9725 36.3861V48.2808C37.9725 48.678 38.2945 49 38.6917 49C39.089 49 39.4109 48.678 39.4109 48.2808V36.7331C44.291 32.7857 47.0822 26.9495 47.0822 20.6644C47.0822 15.1447 44.9328 9.95542 41.0298 6.05246Z" fill="#11935B"/>
<path d="M36.9575 14.6339L34.8859 12.5619C34.6831 12.3591 34.3545 12.3591 34.1518 12.5619C33.9491 12.7647 33.9491 13.0934 34.1518 13.2961L35.8563 15.0008L34.9673 15.89C34.8707 15.7181 34.7503 15.5588 34.6084 15.4169C33.9672 14.7755 32.9649 14.5974 32.1427 14.9827C31.9137 15.0901 31.7043 15.2381 31.5255 15.4169C30.8842 16.0582 30.7061 17.0606 31.0913 17.8831C31.1986 18.1121 31.3466 18.3215 31.5254 18.5004C31.6673 18.6423 31.8266 18.7626 31.9984 18.8594L31.1094 19.7485L29.6112 18.25C29.3 17.939 28.7502 18.1499 28.7259 18.5885C28.6928 19.1861 28.1841 19.667 27.586 19.667C27.281 19.667 26.9942 19.5483 26.7785 19.3325C26.3384 18.8922 26.3384 18.1576 26.7785 17.7173C26.9774 17.5184 27.2416 17.4003 27.5225 17.3848C27.9607 17.3605 28.172 16.8107 27.8609 16.4994L26.3627 15.0009L31.1095 10.2533L32.3122 11.4561C32.515 11.6589 32.8436 11.6589 33.0463 11.4561C33.249 11.2534 33.249 10.9247 33.0463 10.722L31.4766 9.15207C31.2738 8.94931 30.9452 8.94931 30.7425 9.15207L25.2616 14.6339C25.0589 14.8367 25.0589 15.1654 25.2616 15.3681L26.5177 16.6244C26.3458 16.721 26.1865 16.8414 26.0447 16.9833C25.4033 17.6246 25.2251 18.627 25.6105 19.4495C25.7178 19.6786 25.8658 19.8879 26.0446 20.0668C26.4563 20.4787 27.0038 20.7054 27.5862 20.7054C28.1685 20.7054 28.7159 20.4787 29.1277 20.0668C29.2696 19.9249 29.3898 19.7655 29.4865 19.5937L30.7425 20.85C30.9425 21.05 31.2765 21.05 31.4766 20.85L33.3419 18.9844C33.6531 18.6732 33.4419 18.1233 33.0035 18.099C32.7227 18.0835 32.4586 17.9653 32.2596 17.7665C31.8196 17.3263 31.8196 16.5915 32.2597 16.1513C32.6998 15.7111 33.4344 15.7111 33.8746 16.1513C34.0735 16.3502 34.1915 16.6143 34.207 16.8952C34.2313 17.3336 34.7811 17.5449 35.0923 17.2338L36.9576 15.3681C37.1602 15.1652 37.1602 14.8365 36.9575 14.6339Z" fill="#11935B"/>
<path d="M31.3193 23.7631H29.6209C29.6718 23.5815 29.698 23.3925 29.698 23.2006C29.698 22.0512 28.7629 21.1161 27.6135 21.1161C26.4641 21.1161 25.529 22.0512 25.529 23.2006C25.529 23.3925 25.5553 23.5815 25.6061 23.7631H24.404V21.7371C24.404 21.3175 23.8904 21.0866 23.5766 21.3673C23.3763 21.5467 23.1178 21.6455 22.849 21.6455C22.2469 21.6455 21.7571 21.1557 21.7571 20.5537C21.7571 19.9517 22.247 19.4618 22.849 19.4618C23.1178 19.4618 23.3764 19.5606 23.5766 19.74C23.8904 20.0207 24.404 19.7899 24.404 19.3703V16.8479C24.404 16.5738 24.1818 16.3516 23.9077 16.3516H16.4963C16.2222 16.3516 16 16.5738 16 16.8479V31.6708C16 31.9449 16.2222 32.1671 16.4963 32.1671H31.3193C31.5934 32.1671 31.8156 31.9449 31.8156 31.6708V24.2594C31.8156 23.9853 31.5933 23.7631 31.3193 23.7631ZM16.9927 17.3442H23.4115V18.5464C23.23 18.4956 23.0409 18.4692 22.849 18.4692C21.6997 18.4692 20.7645 19.4043 20.7645 20.5537C20.7645 21.7031 21.6997 22.6382 22.849 22.6382C23.0409 22.6382 23.23 22.6119 23.4115 22.561V23.7632H21.3855C20.966 23.7632 20.7349 24.2769 21.0158 24.5905C21.1951 24.7909 21.2939 25.0494 21.2939 25.3182C21.2939 25.9203 20.8042 26.4101 20.2021 26.4101C19.6 26.4101 19.1102 25.9203 19.1102 25.3182C19.1102 25.0494 19.209 24.7909 19.3884 24.5905C19.6693 24.2769 19.4383 23.7632 19.0186 23.7632H16.9927V17.3442ZM23.7052 28.6955C23.5266 28.7754 23.4115 28.9529 23.4115 29.1486V31.1746H16.9926V24.7557H18.1947C18.1439 24.9372 18.1176 25.1263 18.1176 25.3182C18.1176 26.4676 19.0527 27.4027 20.2021 27.4027C21.3515 27.4027 22.2866 26.4676 22.2866 25.3182C22.2866 25.1263 22.2603 24.9373 22.2095 24.7557H23.4116V26.7817C23.4116 27.2012 23.9252 27.4323 24.2389 27.1514C24.4393 26.9721 24.6978 26.8732 24.9667 26.8732C25.5687 26.8732 26.0585 27.3631 26.0585 27.9651C26.0585 28.5671 25.5687 29.0569 24.9667 29.0569C24.6978 29.0569 24.4393 28.9581 24.2389 28.7787C24.093 28.6483 23.8838 28.6157 23.7052 28.6955ZM30.823 31.1746H24.4041V29.9723C24.5856 30.0233 24.7748 30.0496 24.9666 30.0496C26.116 30.0496 27.0511 29.1144 27.0511 27.9651C27.0511 26.8157 26.116 25.8806 24.9666 25.8806C24.7748 25.8806 24.5857 25.9069 24.4041 25.9578V24.7555H26.4301C26.8497 24.7555 27.0807 24.242 26.7999 23.9282C26.6205 23.7278 26.5217 23.4694 26.5217 23.2005C26.5217 22.5984 27.0116 22.1086 27.6136 22.1086C28.2156 22.1086 28.7054 22.5985 28.7054 23.2005C28.7054 23.4694 28.6066 23.7278 28.4272 23.9282C28.1465 24.2419 28.3774 24.7555 28.797 24.7555H30.823V31.1746Z" fill="#11935B"/>
</g>
<defs>
<clipPath id="clip0">
<rect width="49" height="49" fill="white"/>
</clipPath>
</defs>
</svg>
