<svg width="32" height="32" viewBox="0 0 32 32" fill="none" xmlns="http://www.w3.org/2000/svg">
<circle cx="16" cy="16" r="13" fill="white"/>
<path d="M15.9992 12.1475C14.9772 12.1475 13.9971 12.5534 13.2745 13.2761C12.5518 13.9987 12.1458 14.9788 12.1458 16.0008C12.1458 17.0228 12.5518 18.0029 13.2745 18.7255C13.9971 19.4482 14.9772 19.8541 15.9992 19.8541C17.0211 19.8541 18.0013 19.4482 18.7239 18.7255C19.4465 18.0029 19.8525 17.0228 19.8525 16.0008C19.8525 14.9788 19.4465 13.9987 18.7239 13.2761C18.0013 12.5534 17.0211 12.1475 15.9992 12.1475ZM15.9992 18.5033C15.3353 18.5033 14.6985 18.2396 14.2291 17.7701C13.7596 17.3006 13.4958 16.6639 13.4958 16C13.4958 15.336 13.7596 14.6993 14.2291 14.2298C14.6985 13.7604 15.3353 13.4966 15.9992 13.4966C16.6631 13.4966 17.2998 13.7604 17.7693 14.2298C18.2388 14.6993 18.5025 15.336 18.5025 16C18.5025 16.6639 18.2388 17.3006 17.7693 17.7701C17.2998 18.2396 16.6631 18.5033 15.9992 18.5033Z" fill="#11935B"/>
<path d="M20.005 12.9041C20.5011 12.9041 20.9033 12.5019 20.9033 12.0058C20.9033 11.5096 20.5011 11.1074 20.005 11.1074C19.5089 11.1074 19.1067 11.5096 19.1067 12.0058C19.1067 12.5019 19.5089 12.9041 20.005 12.9041Z" fill="#11935B"/>
<path d="M23.1108 11.0925C22.9179 10.5943 22.6231 10.1419 22.2453 9.7642C21.8675 9.38651 21.4149 9.09188 20.9167 8.89915C20.3336 8.68028 19.7177 8.56193 19.095 8.54915C18.2925 8.51415 18.0383 8.50415 16.0033 8.50415C13.9683 8.50415 13.7075 8.50415 12.9117 8.54915C12.2895 8.56128 11.674 8.67965 11.0917 8.89915C10.5933 9.09165 10.1406 9.38621 9.76279 9.76392C9.38493 10.1416 9.0902 10.5942 8.89751 11.0925C8.6786 11.6755 8.56052 12.2915 8.54835 12.9142C8.51251 13.7158 8.50168 13.97 8.50168 16.0058C8.50168 18.0408 8.50168 18.3 8.54835 19.0975C8.56085 19.7208 8.67835 20.3358 8.89751 20.92C9.09074 21.4181 9.38576 21.8705 9.76371 22.2481C10.1417 22.6258 10.5942 22.9205 11.0925 23.1133C11.6737 23.341 12.2895 23.4678 12.9133 23.4883C13.7158 23.5233 13.97 23.5342 16.005 23.5342C18.04 23.5342 18.3008 23.5342 19.0967 23.4883C19.7193 23.4757 20.3352 23.3576 20.9183 23.1392C21.4165 22.946 21.8689 22.6511 22.2467 22.2733C22.6244 21.8955 22.9193 21.4431 23.1125 20.945C23.3317 20.3617 23.4492 19.7467 23.4617 19.1233C23.4975 18.3217 23.5083 18.0675 23.5083 16.0317C23.5083 13.9958 23.5083 13.7375 23.4617 12.94C23.452 12.3085 23.3333 11.6835 23.1108 11.0925ZM22.0958 19.0358C22.0905 19.5161 22.0028 19.9918 21.8367 20.4425C21.7115 20.7665 21.5199 21.0608 21.2742 21.3064C21.0285 21.5519 20.7341 21.7434 20.41 21.8683C19.9644 22.0337 19.4936 22.1214 19.0183 22.1275C18.2267 22.1642 18.0033 22.1733 15.9733 22.1733C13.9417 22.1733 13.7342 22.1733 12.9275 22.1275C12.4525 22.1217 11.9819 22.034 11.5367 21.8683C11.2114 21.7441 10.9158 21.5531 10.6691 21.3075C10.4223 21.0618 10.2299 20.7672 10.1042 20.4425C9.94038 19.9967 9.85277 19.5265 9.84501 19.0517C9.80918 18.26 9.80085 18.0367 9.80085 16.0067C9.80085 13.9758 9.80085 13.7683 9.84501 12.9608C9.8504 12.4808 9.93806 12.0053 10.1042 11.555C10.3583 10.8975 10.8792 10.38 11.5367 10.1283C11.9822 9.96343 12.4525 9.87579 12.9275 9.86915C13.72 9.83332 13.9425 9.82332 15.9733 9.82332C18.0042 9.82332 18.2125 9.82332 19.0183 9.86915C19.4937 9.87487 19.9645 9.96254 20.41 10.1283C20.7341 10.2535 21.0285 10.4452 21.2742 10.6908C21.5198 10.9365 21.7115 11.2309 21.8367 11.555C22.0005 12.0008 22.0881 12.471 22.0958 12.9458C22.1317 13.7383 22.1408 13.9608 22.1408 15.9917C22.1408 18.0217 22.1408 18.24 22.105 19.0367H22.0958V19.0358Z" fill="#11935B"/>
</svg>
