<svg width="64" height="65" viewBox="0 0 64 65" fill="none" xmlns="http://www.w3.org/2000/svg">
<path d="M18.1514 33.6191C18.5313 33.3738 18.7612 32.9521 18.7612 32.5003C18.7612 32.0472 18.5313 31.6262 18.1514 31.3803L3.17552 21.7033L10.1483 10.9125L23.2406 19.3717C23.6513 19.6373 24.1732 19.6563 24.6017 19.4227C25.0301 19.1897 25.2969 18.7404 25.2969 18.2529V2.66542H38.1446V18.2529C38.1446 18.7404 38.4114 19.1897 38.8404 19.4227C39.2689 19.6557 39.7902 19.6366 40.2008 19.3717L53.2919 10.9125L60.269 21.7033L45.2882 31.3803C44.9132 31.6262 44.6796 32.0472 44.6796 32.5003C44.6796 32.9521 44.9132 33.3738 45.2882 33.6191L60.269 43.2954L53.2919 54.0868L40.2008 45.6277C39.7908 45.3633 39.2695 45.3437 38.8404 45.5766C38.4114 45.8102 38.1446 46.259 38.1446 46.7471V62.3345H25.2969V46.7471C25.2969 46.259 25.0301 45.8102 24.6017 45.5766C24.1726 45.3431 23.6507 45.3633 23.2406 45.6277L10.1483 54.0868L3.17552 43.2954L18.1514 33.6191ZM0.029393 42.6198C-0.0443735 42.9653 0.0220163 43.3261 0.213809 43.6224L8.63303 56.6533C9.03259 57.2723 9.85819 57.4494 10.476 57.0492L22.6314 49.1949V63.6673C22.6314 64.4037 23.2283 65 23.9635 65H39.4779C40.2137 65 40.8106 64.4037 40.8106 63.6673V49.1949L52.9661 57.0492C53.587 57.4494 54.4107 57.2723 54.8103 56.6533L63.2258 43.6224C63.4225 43.3261 63.484 42.9653 63.4102 42.6198C63.3364 42.2737 63.1275 41.9725 62.8324 41.7801L48.4664 32.5003L62.8324 23.2192C63.1275 23.0274 63.3364 22.725 63.4102 22.3801C63.484 22.034 63.4225 21.6732 63.2258 21.3763L54.8103 8.34667C54.4107 7.72826 53.587 7.55185 52.9661 7.95019L40.8106 15.8051V1.3327C40.8106 0.59565 40.2137 0 39.4779 0H23.9635C23.2283 0 22.6314 0.59565 22.6314 1.3327V15.8051L10.476 7.95019C9.85819 7.55185 9.03259 7.72826 8.63303 8.34667L0.213809 21.3763C0.0220163 21.6732 -0.0443735 22.034 0.029393 22.3801C0.103774 22.725 0.312191 23.0274 0.609716 23.2192L14.9726 32.5003L0.609716 41.7801C0.312191 41.9725 0.103774 42.2737 0.029393 42.6198Z" fill="#11935B"/>
</svg>
