<svg width="60" height="60" viewBox="0 0 60 60" fill="none" xmlns="http://www.w3.org/2000/svg">
<path d="M12.9078 50.5227L10.3234 48.0275C7.55715 45.3566 7.47904 40.9337 10.1499 38.1674L22.9578 24.9021L35.5747 37.0839L22.7668 50.3492C20.0959 53.1155 15.674 53.1936 12.9078 50.5227ZM47.7505 9.26365L50.3348 11.7589C53.1011 14.4298 53.1821 18.8476 50.5083 21.6169L37.7019 34.8807L25.085 22.6989L37.8914 9.43514C40.5652 6.66583 44.9842 6.59278 47.7505 9.26365ZM24.9706 52.477L52.7121 23.7447C56.5584 19.761 56.4448 13.3971 52.4641 9.55362L49.8797 7.05839C45.8985 3.21447 39.534 3.32361 35.6876 7.30736L22.2391 21.2363C22.0521 21.315 21.8774 21.4309 21.7272 21.5864C21.5776 21.7414 21.4678 21.9201 21.3957 22.1097L7.94615 36.0396C4.10223 40.0208 4.21491 46.3868 8.19612 50.2307L10.7805 52.726C14.7612 56.5694 21.1267 56.4582 24.9706 52.477Z" fill="#11935B"/>
</svg>
