<svg width="52" height="55" viewBox="0 0 52 55" fill="none" xmlns="http://www.w3.org/2000/svg">
<path d="M19.7547 48.3193V43.7768H31.4385V48.3193H19.7547ZM40.4798 52.5705H10.7134V50.7483H40.4798V52.5705ZM2.42954 8.6183C2.42954 5.20539 5.2054 2.42955 8.61775 2.42955H42.5749C45.9878 2.42955 48.7636 5.20539 48.7636 8.6183V35.1585C48.7636 38.5708 45.9878 41.3467 42.5749 41.3467H8.61775C5.2054 41.3467 2.42954 38.5708 2.42954 35.1585V8.6183ZM8.61775 43.7768H17.3246V48.3193H9.49856C8.8273 48.3193 8.28378 48.8628 8.28378 49.5335V53.7852C8.28378 54.457 8.8273 55 9.49856 55H41.6946C42.3659 55 42.9094 54.457 42.9094 53.7852V49.5335C42.9094 48.8628 42.3659 48.3193 41.6946 48.3193H33.868V43.7768H42.5749C47.3275 43.7768 51.1938 39.9111 51.1938 35.1585V8.6183C51.1938 3.86622 47.3275 0 42.5749 0H8.61775C3.86567 0 0 3.86622 0 8.6183V35.1585C0 39.9111 3.86567 43.7768 8.61775 43.7768" fill="#11935B"/>
<path d="M42.4236 23.2792H35.1344C34.9204 23.2792 34.7282 23.1352 34.6688 22.9296L33.2461 18.0962L29.7251 28.3636C29.6579 28.5602 29.4735 28.6919 29.2656 28.6919V28.9351L29.2494 28.6919C29.0342 28.6846 28.8527 28.5412 28.7966 28.3333L25.149 14.8576L20.2445 23.0422C20.1571 23.1884 19.9974 23.2792 19.8276 23.2792H8.89349C8.62565 23.2792 8.40769 23.0601 8.40769 22.7923C8.40769 22.5245 8.62565 22.307 8.89349 22.307H19.5519L24.9024 13.3778C25.0027 13.2097 25.1927 13.1184 25.3854 13.1464C25.5787 13.1733 25.7367 13.3122 25.7883 13.5011L29.3206 26.5487L32.8214 16.3374C32.8892 16.1407 33.0898 16.0051 33.2921 16.009C33.505 16.0135 33.6882 16.1542 33.7476 16.3581L35.4981 22.307H42.4236C42.6915 22.307 42.9095 22.5245 42.9095 22.7923C42.9095 23.0601 42.6915 23.2792 42.4236 23.2792ZM34.2917 34.3231H16.9016C13.4898 34.3231 10.7134 31.5473 10.7134 28.135V23.7645H19.8276C20.1671 23.7645 20.4865 23.584 20.6614 23.2921L24.9781 16.0875L28.3277 28.4599C28.4397 28.8746 28.8039 29.1637 29.2343 29.1772L29.2656 29.1777C29.6814 29.1777 30.0501 28.9144 30.1851 28.5216L33.2108 19.6971L34.2021 23.0668C34.3231 23.4776 34.7064 23.7645 35.1344 23.7645H40.4799V28.135C40.4799 31.5473 37.7041 34.3231 34.2917 34.3231ZM16.9016 9.45386H34.2917C37.7041 9.45386 40.4799 12.2297 40.4799 15.642V21.8207H35.8612L34.2138 16.2203C34.0939 15.8129 33.728 15.5328 33.305 15.5232C32.8904 15.5003 32.4998 15.7793 32.362 16.18L29.3755 24.8913L26.2573 13.3739C26.1553 12.9968 25.8393 12.7183 25.4538 12.665C25.0666 12.6068 24.6878 12.7911 24.4855 13.1284L19.2768 21.8207H10.7134V15.642C10.7134 12.2297 13.4898 9.45386 16.9016 9.45386ZM8.28384 23.5431V28.135C8.28384 32.887 12.1495 36.7527 16.9016 36.7527H34.2917C39.0438 36.7527 42.9095 32.887 42.9095 28.135V23.6294C43.1992 23.4607 43.3958 23.1515 43.3958 22.7923C43.3958 22.4342 43.1992 22.1244 42.9095 21.9557V15.642C42.9095 10.89 39.0438 7.02374 34.2917 7.02374H16.9016C12.1495 7.02374 8.28384 10.89 8.28384 15.642V22.042C8.06531 22.2202 7.92133 22.4886 7.92133 22.7923C7.92133 23.0965 8.06531 23.3649 8.28384 23.5431Z" fill="#11935B"/>
</svg>
