<svg width="41" height="46" viewBox="0 0 41 46" fill="none" xmlns="http://www.w3.org/2000/svg">
<path d="M34.9643 25.51C34.7563 26.5298 34.5567 27.6591 34.3463 28.8546C33.5218 33.5271 32.4951 39.3452 30.0128 43.8128C30.0069 43.8225 30.0011 43.8322 29.9952 43.847C29.8469 43.803 29.5939 43.7002 29.2083 43.4605C28.8947 43.0103 28.6848 40.9649 28.5306 39.4675C27.9841 34.1535 27.1586 26.1271 20.3241 25.6686C20.2772 25.6656 20.2292 25.6656 20.1822 25.6686C13.3478 26.1271 12.5223 34.1535 11.9762 39.4675C11.8216 40.9649 11.6117 43.0103 11.2985 43.4605C10.9129 43.7002 10.6595 43.803 10.5117 43.847C10.5053 43.8322 10.5 43.8225 10.4936 43.8128C7.86592 39.081 6.97974 32.5044 6.39255 28.1553C6.22325 26.8997 6.07743 25.8149 5.91937 25.0178C5.91399 24.9894 5.90665 24.96 5.89882 24.9312C5.78432 24.5328 5.41928 23.5733 4.78414 21.911C3.93565 19.689 2.17016 15.0663 2.12221 14.28C2.12221 7.57623 7.57623 2.12172 14.2805 2.12172C16.204 2.12172 18.0904 2.95798 19.8417 3.86127C20.1465 4.01884 20.5096 4.01884 20.8145 3.86127C22.5662 2.95798 24.4521 2.12172 26.3756 2.12172C33.0799 2.12172 38.5344 7.57623 38.5344 14.28C38.5344 15.5498 36.0359 22.6974 35.0142 25.3392C34.9932 25.395 34.9765 25.4518 34.9643 25.51ZM26.3756 0C24.1918 0 22.1836 0.802002 20.3281 1.7283C18.4725 0.802002 16.4643 0 14.2805 0C6.40674 0 0 6.40576 0 14.28C0 15.1755 0.903786 17.6984 2.80237 22.6675C3.27946 23.9163 3.73062 25.098 3.84757 25.4777C3.98898 26.2083 4.12893 27.2437 4.28992 28.4386C4.89326 32.9106 5.80194 39.6535 8.57152 44.718C8.69532 45.1192 8.99479 45.5793 9.53011 45.824C9.7826 45.9413 10.0547 46 10.3473 46C10.9624 46 11.6699 45.7406 12.4856 45.2221C13.5896 44.5173 13.7765 42.6971 14.0872 39.6829C14.7101 33.625 15.6516 28.1538 20.2537 27.7913C24.8548 28.1538 25.7963 33.625 26.4197 39.6829C26.7299 42.6971 26.9168 44.5173 28.0212 45.2221C29.2255 45.9853 30.1929 46.186 30.9763 45.824C31.5116 45.5793 31.8116 45.1192 31.9354 44.718C34.5415 39.9618 35.5911 34.0116 36.4362 29.2235C36.6388 28.0746 36.8301 26.9883 37.0268 26.017C37.3938 25.0437 40.6561 16.3082 40.6561 14.28C40.6561 6.40576 34.2499 0 26.3756 0Z" fill="#11935B"/>
<path d="M26.9907 13.4659C26.6437 12.8484 26.5581 12.1325 26.7499 11.4504C26.9408 10.7687 27.3865 10.2021 28.0046 9.85566C28.4063 9.6291 28.8506 9.51459 29.2988 9.51459C29.5401 9.51459 29.7813 9.54689 30.0196 9.61393C30.7017 9.80525 31.2679 10.2505 31.6153 10.8686C32.3312 12.1437 31.8766 13.7629 30.6019 14.4798C29.3267 15.1947 27.707 14.7406 26.9907 13.4659ZM30.4781 7.98007C29.36 7.66494 28.1861 7.80587 27.1732 8.37496C26.1603 8.94453 25.4292 9.87327 25.1156 10.9919C24.8014 12.1105 24.9419 13.2849 25.5109 14.2973C26.3081 15.7163 27.7883 16.5154 29.3106 16.5154C30.0313 16.5154 30.7614 16.3368 31.4328 15.9595V15.959C32.4457 15.3899 33.1762 14.4612 33.4909 13.3426C33.8045 12.224 33.6641 11.0501 33.0945 10.0372C32.5264 9.02478 31.5972 8.29324 30.4781 7.98007Z" fill="#11935B"/>
</svg>
