<svg width="49" height="49" viewBox="0 0 49 49" fill="none" xmlns="http://www.w3.org/2000/svg">
<path d="M40.7112 19.1443C39.5801 16.4879 37.8142 14.1498 35.5686 12.3352C33.323 10.5207 30.6663 9.28506 27.8316 8.73693L30.3923 4.63997L27.7953 3.01685L24.4165 8.42292C20.9748 8.43889 17.6131 9.46282 14.747 11.3682C11.8808 13.2736 9.6356 15.977 8.28885 19.1443C6.4849 19.1785 4.76642 19.9192 3.50278 21.2071C2.23915 22.495 1.53125 24.2273 1.53125 26.0315C1.53125 27.8358 2.23915 29.5681 3.50278 30.8559C4.76642 32.1438 6.4849 32.8845 8.28885 32.9188C9.64134 36.0991 11.8994 38.8114 14.7819 40.7179C17.6644 42.6244 21.0441 43.6409 24.5 43.6409C27.956 43.6409 31.3356 42.6244 34.2181 40.7179C37.1006 38.8114 39.3587 36.0991 40.7112 32.9188C42.5151 32.8845 44.2336 32.1438 45.4972 30.8559C46.7609 29.5681 47.4688 27.8358 47.4688 26.0315C47.4688 24.2273 46.7609 22.495 45.4972 21.2071C44.2336 19.9192 42.5151 19.1785 40.7112 19.1443ZM43.3097 28.7122C42.6093 29.4285 41.6547 29.8398 40.653 29.8569L38.6695 29.8946L37.8931 31.72C36.7759 34.3477 34.9105 36.5887 32.529 38.164C30.1476 39.7393 27.3554 40.5792 24.5001 40.5792C21.6448 40.5792 18.8525 39.7393 16.4711 38.164C14.0896 36.5887 12.2242 34.3477 11.107 31.72L10.3305 29.8946L8.34704 29.8569C7.34489 29.8381 6.39012 29.4269 5.68804 28.7115C4.98595 27.9962 4.59262 27.0339 4.59262 26.0315C4.59262 25.0292 4.98595 24.0669 5.68804 23.3516C6.39012 22.6362 7.34489 22.2249 8.34704 22.2062L10.3305 22.1685L11.107 20.343C12.2242 17.7154 14.0897 15.4744 16.4711 13.8992C18.8526 12.3239 21.6448 11.484 24.5001 11.484C27.3553 11.484 30.1475 12.3239 32.529 13.8992C34.9104 15.4744 36.7759 17.7154 37.8931 20.343L38.6695 22.1685L40.653 22.2062C41.4004 22.2203 42.1274 22.4531 42.744 22.8759C43.3606 23.2986 43.8398 23.8928 44.1224 24.5849C44.405 25.277 44.4787 26.0367 44.3342 26.7703C44.1898 27.5038 43.8336 28.1789 43.3097 28.7122Z" fill="#11935B"/>
<path d="M16.0781 22.2031H19.9062V26.0312H16.0781V22.2031Z" fill="#11935B"/>
<path d="M29.0938 22.2031H32.9219V26.0312H29.0938V22.2031Z" fill="#11935B"/>
<path d="M24.5 36.75C25.5054 36.75 26.501 36.552 27.4299 36.1672C28.3588 35.7824 29.2028 35.2185 29.9138 34.5075C30.6247 33.7966 31.1887 32.9526 31.5735 32.0237C31.9582 31.0948 32.1562 30.0992 32.1562 29.0938H16.8438C16.8438 30.0992 17.0418 31.0948 17.4265 32.0237C17.8113 32.9526 18.3753 33.7966 19.0862 34.5075C20.522 35.9434 22.4694 36.75 24.5 36.75Z" fill="#11935B"/>
</svg>
