<svg width="64" height="56" viewBox="0 0 64 56" fill="none" xmlns="http://www.w3.org/2000/svg">
<path d="M8.42583 33.4464H54.8765V41.5607H8.42583V33.4464ZM2.07402 53.926V19.7037H6.35181V53.926H2.07402ZM56.9505 53.926V28.4494H61.2283V53.926H56.9505ZM62.265 26.3753H55.9132C55.3404 26.3753 54.8765 26.8399 54.8765 27.412V31.3724H8.42583V18.667C8.42583 18.0942 7.9613 17.6302 7.38913 17.6302H1.03732C0.464554 17.6302 0 18.0942 0 18.667V54.9627C0 55.5354 0.464554 56 1.03732 56H7.38913C7.9613 56 8.42583 55.5354 8.42583 54.9627V43.6354H54.8765V54.9627C54.8765 55.5354 55.3404 56 55.9132 56H62.265C62.8372 56 63.3017 55.5354 63.3017 54.9627V42.5975V32.4097V27.412C63.3017 26.8399 62.8372 26.3753 62.265 26.3753Z" fill="#11935B"/>
<path d="M21.2592 27.2225C21.2592 27.7941 20.794 28.2592 20.2225 28.2592H12.5739C12.0023 28.2592 11.5372 27.7941 11.5372 27.2225V25.8133C11.5372 25.2423 12.0023 24.7766 12.5739 24.7766H20.2225C20.794 24.7766 21.2592 25.2423 21.2592 25.8133V27.2225ZM12.5739 22.7026C10.8592 22.7026 9.46313 24.098 9.46313 25.8133V27.2225C9.46313 28.9378 10.8592 30.3333 12.5739 30.3333H20.2225C21.9378 30.3333 23.3332 28.9378 23.3332 27.2225V25.8133C23.3332 24.098 21.9378 22.7026 20.2225 22.7026H12.5739Z" fill="#11935B"/>
<path d="M33.3578 7.55054H38.5748C39.0047 7.55054 39.352 7.20198 39.352 6.77271V1.55566H43.8815V6.77271C43.8815 7.20198 44.2295 7.55054 44.6588 7.55054H49.8758V12.0788H44.6588C44.2295 12.0788 43.8815 12.4268 43.8815 12.8567V18.0737H39.352V12.8567C39.352 12.4268 39.0047 12.0788 38.5748 12.0788H33.3578V7.55054ZM38.5748 19.6294H44.6588C45.0886 19.6294 45.4366 19.2808 45.4366 18.8516V13.6345H50.6537C51.0829 13.6345 51.4315 13.286 51.4315 12.8567V6.77271C51.4315 6.34404 51.0829 5.99547 50.6537 5.99547H45.4366V0.777826C45.4366 0.348553 45.0886 -7.62939e-06 44.6588 -7.62939e-06H38.5748C38.1449 -7.62939e-06 37.797 0.348553 37.797 0.777826V5.99547H32.5805C32.1507 5.99547 31.8021 6.34404 31.8021 6.77271V12.8567C31.8021 13.286 32.1507 13.6345 32.5805 13.6345H37.797V18.8516C37.797 19.2808 38.1449 19.6294 38.5748 19.6294Z" fill="#11935B"/>
</svg>
