<svg width="25" height="25" viewBox="0 0 25 25" fill="none" xmlns="http://www.w3.org/2000/svg">
<path d="M22.3029 17.821V20.821C22.304 21.0995 22.247 21.3751 22.1354 21.6303C22.0238 21.8855 21.8602 22.1146 21.655 22.3028C21.4498 22.4911 21.2075 22.6345 20.9437 22.7237C20.6798 22.8129 20.4003 22.846 20.1229 22.821C17.0457 22.4866 14.0899 21.4351 11.4929 19.751C9.07674 18.2156 7.02825 16.1671 5.49291 13.751C3.80289 11.1422 2.75115 8.17197 2.42291 5.08098C2.39792 4.80444 2.43079 4.52574 2.51941 4.2626C2.60804 3.99946 2.75048 3.75767 2.93768 3.5526C3.12487 3.34753 3.35272 3.18369 3.6067 3.0715C3.86069 2.95931 4.13525 2.90124 4.41291 2.90098H7.41291C7.89822 2.8962 8.3687 3.06805 8.73667 3.38451C9.10464 3.70096 9.34499 4.14042 9.41291 4.62098C9.53953 5.58104 9.77436 6.5237 10.1129 7.43098C10.2475 7.7889 10.2766 8.17789 10.1968 8.55186C10.1171 8.92582 9.93177 9.26909 9.66291 9.54098L8.39291 10.811C9.81647 13.3145 11.8894 15.3874 14.3929 16.811L15.6629 15.541C15.9348 15.2721 16.2781 15.0868 16.652 15.0071C17.026 14.9273 17.415 14.9564 17.7729 15.091C18.6802 15.4295 19.6228 15.6644 20.5829 15.791C21.0687 15.8595 21.5123 16.1042 21.8294 16.4785C22.1466 16.8528 22.3151 17.3306 22.3029 17.821Z" stroke="white" stroke-width="2" stroke-linecap="round" stroke-linejoin="round"/>
</svg>
